<svg xmlns="http://www.w3.org/2000/svg" width="512" height="512" viewBox="0 0 512 512">
  <rect width="512" height="512" rx="104" fill="#0f1017"/>
  <svg x="116" y="180" width="280" height="152" viewBox="2.72 2.55 94.57 49.89" preserveAspectRatio="xMidYMid meet">
    <g fill="#67ea94" transform="matrix(0.802386,0,0,0.460028,-421.748,-122.127)">
      <g transform="matrix(0.579082,0,0,1.01004,460.975,-39.6867)"><path d="M250.908,330.267L193.126,415.005L180.938,406.694L244.802,313.037C246.174,311.024 248.453,309.819 250.889,309.816C253.326,309.814 255.606,311.015 256.982,313.026L320.994,406.536L308.821,414.869L250.908,330.267Z"/></g>
      <g transform="matrix(0.582378,0,0,1.01579,485.019,-211.182)"><path d="M87.642,581.398L154.757,482.977L142.638,474.713L75.523,573.134L87.642,581.398Z"/></g>
    </g>
  </svg>
</svg>
